<svg xmlns="http://www.w3.org/2000/svg" xmlns:xlink="http://www.w3.org/1999/xlink" width="90" height="90" viewBox="0 0 90 90" fill="none"><g opacity="1" transform="translate(0 0)  rotate(0 45 45)"><path id="圆形 1" fill-rule="evenodd" style="fill:#FF5733" transform="translate(0 0)  rotate(0 45 45)" opacity="1" d="M45,0C20.15,0 0,20.15 0,45C0,69.85 20.15,90 45,90C69.85,90 90,69.85 90,45C90,20.15 69.85,0 45,0Z " /><g opacity="1" transform="translate(24.545454545454547 25.568181818181817)  rotate(0 20.454545454545453 19.431818181818183)"><path id="路径 1" fill-rule="evenodd" style="fill:#FFFFFF" transform="translate(0 17.937062937062922)  rotate(0 20.454545454545453 1.4947552447552446)" opacity="1" d="M40.91,1.49C40.91,0.67 40.26,0 39.45,0L1.46,0C0.65,0 0,0.67 0,1.49C0,2.32 0.65,2.99 1.46,2.99L39.45,2.99C40.26,2.99 40.91,2.32 40.91,1.49Z " /><path id="路径 2" fill-rule="evenodd" style="fill:#FFFFFF" transform="translate(24.837662337662273 25.41083916083917)  rotate(0 7.305194805194807 6.726398601398601)" opacity="1" d="M0,11.96C0,12.78 0.65,13.45 1.46,13.45L10.23,13.45C12.64,13.45 14.61,11.44 14.61,8.97L14.61,1.49C14.61,0.67 13.96,0 13.15,0C12.34,0 11.69,0.67 11.69,1.49L11.69,8.97C11.69,9.79 11.03,10.46 10.23,10.46L1.46,10.46C0.65,10.46 0,11.13 0,11.96Z " /><path id="路径 3" fill-rule="evenodd" style="fill:#FFFFFF" transform="translate(1.4610389610389802 25.41083916083917)  rotate(0 6.574675324675325 6.726398601398601)" opacity="1" d="M1.46,0C0.65,0 0,0.67 0,1.49L0,8.97C0,11.44 1.97,13.45 4.38,13.45L11.69,13.45C12.49,13.45 13.15,12.78 13.15,11.96C13.15,11.13 12.49,10.46 11.69,10.46L4.38,10.46C3.58,10.46 2.92,9.79 2.92,8.97L2.92,1.49C2.92,0.67 2.27,0 1.46,0Z " /><path id="路径 4" fill-rule="evenodd" style="fill:#FFFFFF" transform="translate(1.4610389610389802 0)  rotate(0 6.574675324675325 6.726398601398601)" opacity="1" d="M1.46,13.45C2.27,13.45 2.92,12.78 2.92,11.96L2.92,4.48C2.92,3.66 3.58,2.99 4.38,2.99L11.69,2.99C12.49,2.99 13.15,2.32 13.15,1.49C13.15,0.67 12.49,0 11.69,0L4.38,0C1.97,0 0,2.01 0,4.48L0,11.96C0,12.78 0.65,13.45 1.46,13.45Z " /><path id="路径 5" fill-rule="evenodd" style="fill:#FFFFFF" transform="translate(24.837662337662273 0)  rotate(0 7.305194805194807 6.726398601398601)" opacity="1" d="M14.61,4.48C14.61,2.01 12.64,0 10.23,0L1.46,0C0.65,0 0,0.67 0,1.49C0,2.32 0.65,2.99 1.46,2.99L10.23,2.99C11.03,2.99 11.69,3.66 11.69,4.48L11.69,11.96C11.69,12.78 12.34,13.45 13.15,13.45C13.96,13.45 14.61,12.78 14.61,11.96L14.61,4.48Z " /></g></g></svg>